<svg xmlns="http://www.w3.org/2000/svg" viewBox="0 0 64 64" fill="none">
  <defs>
    <linearGradient id="cloudbedsGradient" x1="0%" y1="0%" x2="100%" y2="100%">
      <stop offset="0%" style="stop-color:#3B82F6;stop-opacity:1" />
      <stop offset="100%" style="stop-color:#1D4ED8;stop-opacity:1" />
    </linearGradient>
  </defs>
  <!-- Background Circle -->
  <circle cx="32" cy="32" r="30" fill="url(#cloudbedsGradient)"/>
  <!-- Cloud Shape -->
  <path d="M44 28c0-4.4-3.6-8-8-8-3.5 0-6.5 2.3-7.6 5.5-1.1-.9-2.5-1.5-4-1.5-3.3 0-6 2.7-6 6 0 .3 0 .6.1.9C16.3 31.9 15 34 15 36.5c0 3.6 2.9 6.5 6.5 6.5h22c3.6 0 6.5-2.9 6.5-6.5 0-3-2-5.5-4.8-6.3-.1-.7-.2-1.5-.2-2.2z" fill="white"/>
  <!-- Bed Icon -->
  <rect x="22" y="36" width="20" height="4" rx="1" fill="#3B82F6"/>
  <rect x="20" y="33" width="6" height="7" rx="1" fill="#3B82F6"/>
  <rect x="28" y="35" width="12" height="5" rx="1" fill="#60A5FA"/>
  <!-- Bed Legs -->
  <rect x="21" y="40" width="2" height="3" fill="#3B82F6"/>
  <rect x="39" y="40" width="2" height="3" fill="#3B82F6"/>
</svg>
